<svg xmlns="http://www.w3.org/2000/svg" version="1.1" xmlns:xlink="http://www.w3.org/1999/xlink" xmlns:svgjs="http://svgjs.dev/svgjs" width="2000" height="2242" viewBox="0 0 2000 2242"><g transform="matrix(1,0,0,1,-3.1151183800621993,0)"><svg viewBox="0 0 321 360" data-background-color="#ffffff" preserveAspectRatio="xMidYMid meet" height="2242" width="2000" xmlns="http://www.w3.org/2000/svg" xmlns:xlink="http://www.w3.org/1999/xlink"><g id="tight-bounds" transform="matrix(1,0,0,1,0.5000234999999975,0)"><svg viewBox="0 0 320 360" height="360" width="320"><g><svg></svg></g><g><svg viewBox="0 0 320 360" height="360" width="320"><g><path transform="translate(-74.99272,-51.79039) scale(4.65793,4.65793)" d="M20.6 59.9l0.8 1-0.4-1.3c-0.1-0.6-0.8 0.1-0.4 0.3M21.5 59.3c0.3 0.5 0.6 1 0.6 1.5 0 0.7 0.6 1 1.1 1.2-0.7-0.8-1.1-3-1.7-2.7M59.9 16.9c1.7 0 3.3-0.2 5.1 0.2 4.4 1.1 8.1 3.3 10.6 6.4l7 11.2c0.3 2.8 0.9 5.9 0.8 9.3 0.7 0 0.6-1 1.4-1.2-0.8 2-1.2 4.5-1.4 7.4-0.5-1.6 0-4 0.1-5.3-0.7 1.1-1.1 0.3-1.1-0.2 0.1-0.8-0.3-0.7-0.6-1-1.1-1-1.8-2.1-2.6-3.8 0.5-1.3 0.6-3.2-1-4.2-0.5-0.3-1.1-0.8-1.4-1.6-0.4-1.1-1.1-2.4-0.9-4.1 0.1-0.5-1.5 1.1-2.4 0.4-3.9-2.7-7.8-5.8-12.5-8.4-2.5 0-4.3-0.9-5.2-2-0.8-1-0.2-2.3 1-2.4 0.7 0 1.5-0.2 2.1 0.2 0.1-0.4 0.5-0.9 1-0.9M50 14.6l0.2 0.1c1 0.2 1.5 1.6 2.6 1.1 0 0.7 0.1 1.4-0.1 1.9-0.3 0.8-1.2 0.8-1.9 0.8-6.7-0.4-10.6 2.4-14.7 4.8-1.1 0.7-2.3 1.2-3.2 2.1-4.3 4-9 7.7-10.1 15.1l-0.9 8.2c-0.1 0.9-1.1 1.8-0.9 2.9l0.7 4.9c-0.7-0.7-1.1 0.2-0.9 0.6 0.1 0.3 0.5 1.3 1.1 0.4 0.8 1.5 1.6 4.4 2.7 5.7 3.4 4 7.8 7.6 11.4 11.2 0.9-0.2 1.6-0.2 1.8-0.8 0.3 0.6-0.3 1.2-0.8 1.3 1.6 1 3.4 1.9 5.8 2.1 3.1 0.2 6 0.7 8.7 1.4 1.4-0.4 2.8-0.6 4.3-0.7 0.5 0 0.8-0.8 1.4-1l0.1-1c0.6 0.9 0.5-0.3 0.1-0.9 0.7 0.6 0.9 1.1 1.2 1.5 0-0.3 0.8-1.4 0.8-0.1l0.2-1.3c0.3-0.2 0.4 1.1 0.7 0.2 0.3-0.9 0.9-0.2 1.5-0.5-0.2 0.4-0.1 1.2 0.6 0.7l0.8-0.7c0.5 1.2 1.3 0.7 1.7 0.5 4.4-2.8 8.8-6.1 13-9.4l-0.1 1.3 0.5-1.6c0.5 0.5 0.9 0.1 1.1-0.2 0.6-1 1.4-2 2.7-2.9-1.6 4.3-3.5 7.7-5.9 10.5l-1 1.2c0 0.7-0.2 1.6-1 1.7-0.4 0.1-1.2-0.2-1.8 0.4-0.3 0.4 0.7 1.2-0.1 0.6-0.7-0.5-1.4 0-2.2 0.2-0.6 0.2 0.4 0.8 0.6 1.2 0.2 0.4 0.4 0.8 0.3 1.3l-1.1-1.2c-1.3 0.7-2.1 2-3.2 3-0.5 0.4-0.3 1.1-0.3 1.7-0.7 0-1.5-0.2-1.9 0.2-0.3 0.4-0.2 1-0.2 1.6-1-0.1-1.1-1.6-2-1.3-0.9 0.2-1.9 0.3-2.7 0.8 0.6 1.2-1 0.5-0.8 0.7-1.5-0.9-2.8-1.6-4.4-1-3.4-1.1-7.6-0.6-10.7-0.2 0-0.5 0.1-1-0.1-1.1-0.2 0.5-0.8 0.3-0.7 0.3-1.9-1.3-3.8-2.1-5.8-3.2-1.8 0.2-3.5-0.7-4-1.2-1.4-1.3-3-0.6-4.3-0.9-2.8-0.7-3.8-3.6-4.1-5.6-0.2-1-1-1.4-1.3-1.3-1.3-4.2-3.3-8-4.9-11.9-0.4-1-0.3-2-0.3-3.1 0.5 0.2 1 0.1 0.9-0.6-0.5-3.3-1.7-5.8-3-8.2 0.7-3.4 0.8-7.4 2.4-10.4 1.4-2.7 4-4.1 5.8-6.4 0.6-0.8 0.6-1.9 1.2-2.6 2-2 4-4.1 6.2-5.9 1-0.8 2.2 0 3.7-0.3 0.5-1.8 2.5-3.4 4.4-2.9 0.8 0.2 2.4-1.9 2.9-2.1 0.8-0.3 0.4 0.8 0.4 1.5 1.9-1.5 4.5-2.3 6.9-3.2" fill="#ed2647" fill-rule="nonzero" stroke="none" stroke-width="1" stroke-linecap="butt" stroke-linejoin="miter" stroke-miterlimit="10" stroke-dasharray="" stroke-dashoffset="0" font-family="none" font-weight="none" font-size="none" text-anchor="none" style="mix-blend-mode: normal" data-fill-palette-color="tertiary"></path></g><g transform="matrix(1,0,0,1,117.62704130452515,90)"><svg viewBox="0 0 84.7459173909497 180" height="180" width="84.7459173909497"><g><svg viewBox="0 0 84.7459173909497 180" height="180" width="84.7459173909497"><g><svg viewBox="0 0 191.99999999999997 407.80725566481124" height="180" width="84.7459173909497"><g transform="matrix(1,0,0,1,0,236.13104146804915)"><svg viewBox="0 0 191.99999999999997 171.67621419676212" height="171.67621419676212" width="191.99999999999997"><g id="textblocktransform"><svg viewBox="0 0 191.99999999999997 171.67621419676212" height="171.67621419676212" width="191.99999999999997" id="textblock"><g><svg viewBox="0 0 191.99999999999997 171.67621419676212" height="171.67621419676212" width="191.99999999999997"><g transform="matrix(1,0,0,1,0,0)"><svg width="191.99999999999997" viewBox="2.25 -35.06 39.21 35.06" height="171.67621419676212" data-palette-color="#ed2647"><path d="M23.24-3.39L23.24-15.45 17.5-4.88Q17.14-4.2 16.63-3.75 16.11-3.3 15.21-3.3L15.21-3.3Q14.38-3.3 13.83-3.76 13.28-4.22 12.92-4.86L12.92-4.86 6.86-15.26Q7.01-11.96 7.13-9.18L7.13-9.18Q7.18-7.98 7.23-6.79 7.28-5.59 7.32-4.57 7.37-3.54 7.41-2.75 7.45-1.95 7.47-1.59L7.47-1.59Q7.5-1.22 7.46-0.93 7.42-0.63 7.28-0.43 7.13-0.22 6.86-0.11 6.59 0 6.13 0L6.13 0 3.44 0Q3 0 2.62-0.28 2.25-0.56 2.25-1.39L2.25-1.39 2.25-32.45Q2.25-32.91 2.38-33.37 2.51-33.84 2.84-34.22 3.17-34.59 3.71-34.83 4.25-35.06 5.03-35.06L5.03-35.06 12.89-35.06Q13.84-35.06 14.53-34.73 15.21-34.4 15.7-33.64L15.7-33.64 22.27-23.22 26.66-31.64Q27.05-32.4 27.42-33.02 27.78-33.64 28.28-34.09 28.78-34.55 29.53-34.8 30.27-35.06 31.45-35.06L31.45-35.06 37.94-35.06Q38.87-35.06 39.54-34.81 40.21-34.57 40.64-34.16 41.06-33.74 41.26-33.18 41.46-32.62 41.46-31.96L41.46-31.96 41.46-3.39Q41.46-2.64 41.33-2.01 41.21-1.39 40.83-0.94 40.45-0.49 39.76-0.24 39.06 0 37.94 0L37.94 0 26.66 0Q25.66 0 25-0.22 24.34-0.44 23.95-0.85 23.56-1.27 23.4-1.9 23.24-2.54 23.24-3.39L23.24-3.39Z" opacity="1" transform="matrix(1,0,0,1,0,0)" fill="#ed2647" class="wordmark-text-0" data-fill-palette-color="primary" id="text-0"></path></svg></g></svg></g></svg></g></svg></g><g transform="matrix(1,0,0,1,36.67199999999999,0)"><svg viewBox="0 0 118.65599999999999 211.07936158760083" height="211.07936158760083" width="118.65599999999999"><g><svg xmlns="http://www.w3.org/2000/svg" xmlns:xlink="http://www.w3.org/1999/xlink" version="1.1" x="0" y="0" viewBox="25.9937269589273 11.190029342523125 38.01097053407142 67.61842126531235" enable-background="new 0 0 90 90" xml:space="preserve" height="211.07936158760083" width="118.65599999999999" class="icon-icon-0" data-fill-palette-color="accent" id="icon-0"><path d="M59.711 46.323C58.748 45.729 57.655 45.542 56.462 45.751L51.75 13.964C51.506 12.708 50.963 11.862 50.136 11.452 48.897 10.837 47.533 11.493 47.461 11.528 45.465 12.577 44.813 16.225 44.738 16.716L44.36 31.538C44.335 31.835 44.28 31.972 44.282 32.013A0.7 0.7 0 0 1 44.114 31.913 0.7 0.7 0 0 0 43.965 31.821L41.734 30.872A0.5 0.5 0 0 0 41.625 30.837C39.17 30.339 37.436 31.536 36.449 32.751A0.5 0.5 0 0 0 36.328 32.899C36.152 33.126 35.998 33.35 35.877 33.563 34.402 33.35 33.136 33.606 32.105 34.325 30.718 35.29 30.17 36.827 29.979 37.552L28.596 37.814C25.11 38.445 26.057 47.582 26.276 49.337 26.276 50.427 27.126 52.269 28.131 54.073A0.56 0.56 0 0 0 28.328 54.469L28.377 54.51A67 67 0 0 0 31.289 59.094C32.807 68.28 35.129 71.612 36.816 72.787 37.589 73.326 38.168 73.426 38.545 73.406 40.933 74.644 42.388 78.402 42.401 78.441A0.57 0.57 0 0 0 43.137 78.771 0.57 0.57 0 0 0 43.466 78.037C43.399 77.859 41.785 73.678 38.906 72.314A0.64 0.64 0 0 0 38.57 72.265C38.543 72.279 34.644 72.578 32.389 58.783A0.6 0.6 0 0 0 32.294 58.549 63 63 0 0 1 30.503 55.828C31.091 56.088 31.737 56.283 32.373 56.283A3 3 0 0 0 32.864 56.244C33.193 56.258 34.325 56.217 35.157 55.41 35.751 54.836 36.034 54.012 36.02 52.978 36.647 53.242 37.334 53.398 38.093 53.398 38.438 53.398 38.797 53.367 39.168 53.3 39.239 53.282 40.924 52.802 41.676 51.355 41.947 50.835 42.043 50.263 42.004 49.652A4.16 4.16 0 0 0 43.924 50.12 4.87 4.87 0 0 0 46.456 49.378C48.207 48.187 47.709 46.177 47.184 45.253L45.263 42.263A0.57 0.57 0 0 0 44.304 42.88L46.209 45.841C46.306 46.015 47.111 47.556 45.817 48.437 45.803 48.447 44.626 49.232 43.23 48.898 42.187 48.656 41.271 47.845 40.509 46.49L37.942 41.976 37.394 33.372C38.094 32.534 39.363 31.559 41.341 31.942L43.448 32.838C43.589 32.942 43.891 33.119 44.241 33.145L44.499 40.03A0.57 0.57 0 0 0 45.067 40.579L45.088 40.577A0.57 0.57 0 0 0 45.637 39.987L45.352 32.37C45.351 32.352 45.341 32.335 45.339 32.319 45.412 32.114 45.47 31.881 45.493 31.596L45.865 16.821C46.026 15.854 46.716 13.204 47.975 12.542 47.983 12.538 48.896 12.108 49.625 12.472 50.119 12.716 50.455 13.29 50.623 14.156L55.352 46.056A9 9 0 0 0 54.248 46.529C54.054 46.609 49.448 48.537 46.822 54.517 45.891 56.636 46.343 57.892 46.889 58.574 47.867 59.799 49.87 60.078 51.534 59.826 51.546 59.847 51.549 59.872 51.563 59.892A0.564 0.564 0 0 0 52.356 60.032C52.469 59.954 53.823 59.262 56.136 56.565A0.572 0.572 0 1 0 55.269 55.821 23 23 0 0 1 53.247 57.923C53.152 57.986 53.039 58.068 52.889 58.171 52.653 58.581 50.103 59.218 48.448 58.384 47.318 57.816 47.122 56.669 47.866 54.974 50.298 49.439 54.636 47.603 54.723 47.564 56.491 46.652 57.925 46.564 59.109 47.293 62.898 49.621 62.864 59.342 62.868 59.367 61.393 70.23 55.922 71.031 55.848 71.041A0.571 0.571 0 0 0 55.91 72.178C55.93 72.178 55.951 72.178 55.971 72.176 56.233 72.147 62.391 71.362 64.004 59.451 64.011 59.024 64.043 48.987 59.711 46.323M34.889 52.853C34.924 53.632 34.752 54.214 34.371 54.587 33.79 55.157 32.871 55.105 32.869 55.105A0.5 0.5 0 0 0 32.713 55.115C31.594 55.342 30.006 54.336 29.272 53.767 28.254 51.97 27.413 50.199 27.411 49.267 26.905 45.173 27.003 39.259 28.802 38.933L29.935 38.72 31.2 46.036C31.603 47.964 32.822 50.925 35.043 52.436A0.56 0.56 0 0 0 34.889 52.853M39.518 47.054C39.862 47.665 40.248 48.156 40.659 48.585A0.5 0.5 0 0 0 40.688 48.815C40.963 49.59 40.958 50.268 40.669 50.823 40.158 51.817 38.906 52.192 38.919 52.192 33.912 53.087 32.377 46.1 32.318 45.821L31.017 38.294C31.011 38.259 30.991 38.231 30.98 38.198 30.988 38.175 31.009 38.157 31.013 38.132 31.015 38.112 31.333 36.243 32.762 35.255 33.626 34.655 34.744 34.489 36.081 34.755A0.55 0.55 0 0 0 36.337 34.739L36.812 42.182C36.817 42.268 36.841 42.352 36.884 42.426z" fill="#ed2647" data-fill-palette-color="accent"></path></svg></g></svg></g><g></g></svg></g></svg></g></svg></g></svg></g><defs></defs></svg><rect width="320" height="360" fill="none" stroke="none" visibility="hidden"></rect></g></svg></g></svg>